<?xml version="1.0" encoding="utf-8"?>
<!-- Generator: Adobe Illustrator 23.0.0, SVG Export Plug-In . SVG Version: 6.00 Build 0)  -->
<svg version="1.1" id="Layer_1" xmlns="http://www.w3.org/2000/svg" xmlns:xlink="http://www.w3.org/1999/xlink" x="0px" y="0px"
	 viewBox="0 0 1000 1000" style="enable-background:new 0 0 1000 1000;" xml:space="preserve">
<style type="text/css">
	.st0{fill:#E52C2C;}
	.st1{font-family:'Calibri';}
	.st2{font-size:32.7207px;}
	.st3{letter-spacing:5.65;}
	.st4{letter-spacing:8.47;}
	.st5{fill:#FFFFFF;}
</style>
<g>
	<g>
		<path class="st0" d="M210.98,510.71h-22.34l-5.78,36.6h-25l14.38-90.99h25l-5.29,33.46h22.34l5.29-33.46h25L230.2,547.3h-25
			L210.98,510.71z"/>
		<path class="st0" d="M284.02,456.31l-14.38,90.99h-24.49l14.38-90.99H284.02z"/>
		<path class="st0" d="M328.54,497.44h37.97l-7.88,49.86h-12.45l-0.75-10c-4.88,7.87-12.67,11.8-23.35,11.8
			c-7.83,0-14.21-1.78-19.16-5.33s-8.77-8.14-11.49-13.77c-2.71-5.62-4.07-12.23-4.07-19.83c0-15.29,4.1-28.44,12.3-39.46
			c8.2-11.02,19.13-16.53,32.8-16.53c19.3,0,31.39,9.76,36.27,29.26l-23.65,4.07c-1.64-8.09-5.95-12.13-12.93-12.13
			c-6.31,0-10.83,4.13-13.56,12.4c-2.73,8.27-4.1,16.35-4.1,24.26c0,10.58,3.96,15.87,11.89,15.87c6.2,0,10.6-3.76,13.22-11.27
			h-14.13L328.54,497.44z"/>
		<path class="st0" d="M425.62,510.71h-22.34l-5.78,36.6h-25l14.38-90.99h25l-5.29,33.46h22.34l5.29-33.46h25l-14.38,90.99h-25
			L425.62,510.71z"/>
		<path class="st0" d="M538.19,477.44l-22.14,5.93c-0.63-2.71-2.21-4.84-4.73-6.4c-2.52-1.56-5.3-2.33-8.33-2.33
			c-5.68,0-8.52,2-8.52,6c0,1.29,0.4,2.4,1.2,3.33c0.8,0.93,3.05,2.09,6.75,3.48l13.68,5.16c3.57,1.34,6.89,3.31,9.97,5.91
			c3.07,2.6,5.28,5.44,6.63,8.53c1.35,3.09,2.02,6.38,2.02,9.89c0,9.19-3.42,16.79-10.25,22.78c-6.83,5.99-15.95,8.99-27.34,8.99
			c-9.76,0-18.26-2.09-25.51-6.27c-7.25-4.18-12.31-10.55-15.17-19.13l24.85-5.13c2.14,6.44,7.44,9.67,15.89,9.67
			c3.53,0,6.09-0.68,7.66-2.03c1.58-1.35,2.37-2.9,2.37-4.63c0-1.11-0.3-2.09-0.91-2.93c-0.61-0.84-1.26-1.45-1.96-1.83
			c-0.69-0.38-3.96-1.7-9.8-3.98c-7.9-3.08-13.44-5.52-16.62-7.32c-3.18-1.8-5.83-4.47-7.95-8.03c-2.13-3.55-3.19-7.73-3.19-12.52
			c0-8.3,2.89-15.33,8.67-21.08c5.78-5.75,14.62-8.63,26.52-8.63c9.08,0,16.86,2.02,23.34,6.07
			C531.8,464.96,536.09,470.47,538.19,477.44z"/>
		<path class="st0" d="M569.83,513.91l-5.31,33.4h-25l14.38-90.99h28.45c6.69,0,11.55,0.3,14.6,0.9s6.2,2.04,9.46,4.33
			c3.26,2.29,5.84,5.36,7.76,9.2c1.91,3.84,2.87,7.97,2.87,12.37c0,8.53-2.63,15.8-7.88,21.8c-5.25,6-12.77,9-22.56,9H569.83z
			 M572.92,494.44h5.94c9.05,0,13.58-3.23,13.58-9.7c0-5.8-3.79-8.7-11.35-8.7h-5.24L572.92,494.44z"/>
		<path class="st0" d="M683.7,526.37l-3.34,20.93h-63.45l14.38-90.99h61.88l-3.15,19.93h-36.93l-2.24,14.27h31.03l-3.15,19.73
			h-30.97l-2.53,16.13H683.7z"/>
		<path class="st0" d="M757.69,526.37l-3.34,20.93h-63.45l14.38-90.99h61.88l-3.15,19.93h-36.93l-2.24,14.27h31.03l-3.15,19.73
			h-30.97l-2.53,16.13H757.69z"/>
		<path class="st0" d="M764.88,547.3l14.38-90.99h28.7c6.94,0,12.56,0.53,16.87,1.6c4.31,1.07,8.48,3.38,12.52,6.93
			c4.04,3.56,7.08,8.08,9.15,13.57c2.06,5.49,3.09,11.7,3.09,18.63c0,8.98-1.58,17.04-4.73,24.2c-3.15,7.15-7.33,12.83-12.52,17.03
			c-5.19,4.2-10.26,6.76-15.2,7.67c-4.94,0.91-11.87,1.37-20.78,1.37H764.88z M793.87,526.9h5.79c6.09,0,10.58-0.91,13.48-2.73
			c2.9-1.82,5.39-5.2,7.49-10.15c2.1-4.95,3.15-10.91,3.15-17.88c0-13.4-4.81-20.11-14.44-20.11h-7.44L793.87,526.9z"/>
	</g>
</g>
<text transform="matrix(1.0625 0 0 1 157.8589 592.5966)"><tspan x="0" y="0" class="st1 st2 st3">PHOTOGRAPHY  EQUIPMENT </tspan><tspan x="525.43" y="0" class="st1 st2 st4"> RENT</tspan></text>
<polygon class="st0" points="257.07,445.86 272.93,437.5 286,445.43 286,431.29 303.79,409.86 279.36,423.14 268.21,415.86 
	269.07,430.21 "/>
<polygon class="st5" points="814.61,494.58 837.14,502.85 814.61,509.04 785.71,504.54 "/>
</svg>
